<svg width="25" height="25" viewBox="0 0 25 25" fill="none" xmlns="http://www.w3.org/2000/svg">
<path d="M19.65 8.5C19.4755 8.19772 19.2249 7.94638 18.9232 7.77095C18.6214 7.59552 18.279 7.50211 17.93 7.5H15.5V5.5C15.5 5.23478 15.3946 4.98043 15.2071 4.79289C15.0196 4.60536 14.7652 4.5 14.5 4.5H4.5C3.96957 4.5 3.46086 4.71071 3.08579 5.08579C2.71071 5.46086 2.5 5.96957 2.5 6.5V16.5C2.50036 16.8507 2.59294 17.1952 2.76846 17.4988C2.94398 17.8025 3.19626 18.0546 3.5 18.23C3.4642 19.1583 3.79861 20.0627 4.42967 20.7444C5.06073 21.4261 5.93674 21.8292 6.865 21.865C7.79326 21.9008 8.69772 21.5664 9.37941 20.9353C10.0611 20.3043 10.4642 19.4283 10.5 18.5H13.6C13.7106 19.3367 14.1215 20.1047 14.7561 20.661C15.3908 21.2173 16.206 21.524 17.05 21.524C17.894 21.524 18.7092 21.2173 19.3439 20.661C19.9785 20.1047 20.3894 19.3367 20.5 18.5C21.0304 18.5 21.5391 18.2893 21.9142 17.9142C22.2893 17.5391 22.5 17.0304 22.5 16.5V13.5C22.4984 13.3176 22.4502 13.1386 22.36 12.98L19.65 8.5ZM15.5 9.5H17.93L19.73 12.5H15.5V9.5ZM7 19.5C6.70333 19.5 6.41332 19.412 6.16664 19.2472C5.91997 19.0824 5.72771 18.8481 5.61418 18.574C5.50065 18.2999 5.47094 17.9983 5.52882 17.7074C5.5867 17.4164 5.72956 17.1491 5.93934 16.9393C6.14912 16.7296 6.41639 16.5867 6.70736 16.5288C6.99834 16.4709 7.29994 16.5007 7.57403 16.6142C7.84811 16.7277 8.08238 16.92 8.2472 17.1666C8.41203 17.4133 8.5 17.7033 8.5 18C8.5 18.3978 8.34196 18.7794 8.06066 19.0607C7.77936 19.342 7.39782 19.5 7 19.5ZM17 19.5C16.7033 19.5 16.4133 19.412 16.1666 19.2472C15.92 19.0824 15.7277 18.8481 15.6142 18.574C15.5006 18.2999 15.4709 17.9983 15.5288 17.7074C15.5867 17.4164 15.7296 17.1491 15.9393 16.9393C16.1491 16.7296 16.4164 16.5867 16.7074 16.5288C16.9983 16.4709 17.2999 16.5007 17.574 16.6142C17.8481 16.7277 18.0824 16.92 18.2472 17.1666C18.412 17.4133 18.5 17.7033 18.5 18C18.5 18.3978 18.342 18.7794 18.0607 19.0607C17.7794 19.342 17.3978 19.5 17 19.5Z" fill="white"/>
</svg>
