<svg width="25" height="25" viewBox="0 0 25 25" fill="none" xmlns="http://www.w3.org/2000/svg">
<path d="M22.807 10.5509C22.7861 10.4453 22.7427 10.3455 22.6798 10.2581C22.6168 10.1707 22.5358 10.098 22.4423 10.0447L19.6457 8.45092L19.6345 5.29904C19.6341 5.1905 19.6102 5.08331 19.5644 4.9849C19.5186 4.88649 19.452 4.79919 19.3692 4.72904C18.3547 3.87093 17.1865 3.21334 15.9267 2.79123C15.8274 2.75765 15.7223 2.74522 15.618 2.75475C15.5137 2.76428 15.4125 2.79555 15.321 2.84655L12.5001 4.42342L9.67637 2.84373C9.58483 2.79245 9.48354 2.76094 9.37906 2.75125C9.27458 2.74156 9.16922 2.75391 9.06981 2.78748C7.8107 3.21228 6.64376 3.87242 5.63106 4.7328C5.54834 4.80284 5.48179 4.88999 5.43599 4.98823C5.39019 5.08647 5.36622 5.19347 5.36575 5.30186L5.35168 8.45654L2.55512 10.0503C2.46156 10.1036 2.38056 10.1764 2.31764 10.2637C2.25471 10.3511 2.21132 10.451 2.19043 10.5566C1.93457 11.8427 1.93457 13.1667 2.19043 14.4528C2.21132 14.5584 2.25471 14.6583 2.31764 14.7457C2.38056 14.833 2.46156 14.9058 2.55512 14.9591L5.35168 16.5528L5.36293 19.7056C5.36327 19.8142 5.38717 19.9214 5.43298 20.0198C5.47879 20.1182 5.54541 20.2055 5.62825 20.2756C6.64267 21.1338 7.81088 21.7913 9.07075 22.2134C9.16996 22.247 9.27511 22.2595 9.37942 22.2499C9.48373 22.2404 9.58488 22.2091 9.67637 22.1581L12.5001 20.5766L15.3239 22.1563C15.4356 22.2186 15.5616 22.2509 15.6895 22.25C15.7714 22.25 15.8527 22.2367 15.9304 22.2106C17.1892 21.786 18.3561 21.1265 19.3692 20.2672C19.4519 20.1972 19.5184 20.11 19.5642 20.0118C19.61 19.9135 19.634 19.8065 19.6345 19.6981L19.6485 16.5434L22.4451 14.9497C22.5387 14.8964 22.6197 14.8237 22.6826 14.7363C22.7455 14.6489 22.7889 14.5491 22.8098 14.4434C23.0642 13.1583 23.0633 11.8357 22.807 10.5509ZM12.5001 16.25C11.7584 16.25 11.0334 16.0301 10.4167 15.618C9.80005 15.206 9.3194 14.6203 9.03557 13.9351C8.75174 13.2499 8.67748 12.4959 8.82218 11.7684C8.96687 11.041 9.32402 10.3728 9.84847 9.84833C10.3729 9.32389 11.0411 8.96673 11.7685 8.82204C12.4959 8.67734 13.2499 8.75161 13.9352 9.03543C14.6204 9.31926 15.2061 9.79991 15.6181 10.4166C16.0302 11.0333 16.2501 11.7583 16.2501 12.5C16.2501 13.4946 15.855 14.4484 15.1518 15.1517C14.4485 15.8549 13.4947 16.25 12.5001 16.25Z" fill="white"/>
</svg>
