<svg width="25" height="25" viewBox="0 0 25 25" fill="none" xmlns="http://www.w3.org/2000/svg">
<g clip-path="url(#clip0_4130_28917)">
<g clip-path="url(#clip1_4130_28917)">
<path d="M6.51126 14.3561C6.5138 14.4069 6.50599 14.4577 6.48828 14.5054C6.47058 14.5531 6.44336 14.5967 6.40828 14.6335C6.3732 14.6703 6.331 14.6997 6.28423 14.7197C6.23747 14.7397 6.18712 14.75 6.13626 14.7499H2.00001C1.83073 14.7501 1.66634 14.6931 1.53358 14.5881C1.40081 14.4831 1.30748 14.3362 1.26876 14.1715C1.24465 14.0587 1.24576 13.9419 1.27202 13.8296C1.29827 13.7173 1.34902 13.6122 1.42064 13.5218C2.08236 12.6443 2.9603 11.9534 3.96876 11.5165C3.526 11.1128 3.18642 10.6089 2.97846 10.047C2.77049 9.48505 2.7002 8.88149 2.77346 8.28682C2.84672 7.69216 3.06141 7.1237 3.39955 6.62907C3.73768 6.13444 4.18941 5.72803 4.71691 5.44388C5.24441 5.15974 5.83232 5.00612 6.43139 4.99591C7.03047 4.98569 7.62327 5.11918 8.16015 5.38518C8.69703 5.65118 9.16235 6.04195 9.51715 6.52477C9.87195 7.00759 10.1059 7.56839 10.1994 8.16021C10.2115 8.2398 10.1972 8.32115 10.1588 8.39189C10.1204 8.46263 10.0599 8.51888 9.98657 8.55209C8.94631 9.033 8.06532 9.80144 7.44755 10.7667C6.82977 11.732 6.50099 12.8538 6.50001 13.9999C6.50001 14.1199 6.50001 14.238 6.51126 14.3561ZM23.5738 13.5208C22.9136 12.6443 22.0376 11.9538 21.0313 11.5165C21.474 11.1128 21.8136 10.6089 22.0216 10.047C22.2295 9.48505 22.2998 8.88149 22.2266 8.28682C22.1533 7.69216 21.9386 7.1237 21.6005 6.62907C21.2623 6.13444 20.8106 5.72803 20.2831 5.44388C19.7556 5.15974 19.1677 5.00612 18.5686 4.99591C17.9696 4.98569 17.3768 5.11918 16.8399 5.38518C16.303 5.65118 15.8377 6.04195 15.4829 6.52477C15.1281 7.00759 14.8941 7.56839 14.8006 8.16021C14.7886 8.2398 14.8028 8.32115 14.8412 8.39189C14.8796 8.46263 14.9401 8.51888 15.0134 8.55209C16.0537 9.033 16.9347 9.80144 17.5525 10.7667C18.1702 11.732 18.499 12.8538 18.5 13.9999C18.5 14.1199 18.5 14.238 18.4888 14.3561C18.4862 14.4069 18.494 14.4577 18.5117 14.5054C18.5294 14.5531 18.5567 14.5967 18.5917 14.6335C18.6268 14.6703 18.669 14.6997 18.7158 14.7197C18.7626 14.7397 18.8129 14.75 18.8638 14.7499H23C23.1693 14.7501 23.3337 14.6931 23.4664 14.5881C23.5992 14.4831 23.6925 14.3362 23.7313 14.1715C23.7555 14.0585 23.7544 13.9415 23.728 13.829C23.7015 13.7165 23.6505 13.6112 23.5784 13.5208H23.5738ZM15.23 17.569C15.9768 16.997 16.5256 16.2055 16.7992 15.3056C17.0729 14.4057 17.0577 13.4426 16.7558 12.5518C16.4538 11.661 15.8804 10.8872 15.1159 10.3391C14.3515 9.79106 13.4345 9.49632 12.4939 9.49632C11.5533 9.49632 10.6364 9.79106 9.87191 10.3391C9.10747 10.8872 8.53399 11.661 8.23206 12.5518C7.93012 13.4426 7.91493 14.4057 8.1886 15.3056C8.46227 16.2055 9.01106 16.997 9.75782 17.569C8.4327 18.1431 7.3262 19.1264 6.60032 20.3749C6.53449 20.4889 6.49983 20.6183 6.49984 20.7499C6.49985 20.8816 6.53452 21.0109 6.60036 21.125C6.66621 21.239 6.76091 21.3337 6.87495 21.3995C6.98899 21.4653 7.11834 21.4999 7.25001 21.4999H17.75C17.8817 21.4999 18.011 21.4653 18.1251 21.3995C18.2391 21.3337 18.3338 21.239 18.3997 21.125C18.4655 21.0109 18.5002 20.8816 18.5002 20.7499C18.5002 20.6183 18.4655 20.4889 18.3997 20.3749C17.6723 19.1256 16.5637 18.1422 15.2366 17.569H15.23Z" fill="white"/>
</g>
</g>
<defs>
<clipPath id="clip0_4130_28917">
<rect width="25" height="25" fill="white"/>
</clipPath>
<clipPath id="clip1_4130_28917">
<rect width="25" height="25" fill="white"/>
</clipPath>
</defs>
</svg>
