<svg width="159" height="46" viewBox="0 0 159 46" fill="none" xmlns="http://www.w3.org/2000/svg">
<path d="M17.0715 24.5641H1.84716L0 29.1965H7.89776C8.68946 35.1422 11.9739 39.0286 16.5904 39.27C16.7549 39.2793 16.9256 39.2825 17.1057 39.2825C20.0922 39.2825 25.0779 37.9316 28.4619 29.9707H23.8828C21.514 34.462 18.8411 35.3428 16.7983 35.2362C13.9515 35.0857 12.1447 31.1303 12.4676 29.1934H15.2616L17.0529 24.6017L17.0467 24.6206H35.8225L29.3621 41.2101H34.0592L42.3326 19.9756H18.8473L17.0684 24.5641H17.0715Z" fill="white"/>
<path d="M20.5769 15.2994H15.2434C16.9044 13.1901 19.2762 11.4192 22.0081 10.3191C25.243 9.01842 27.3788 8.88985 32.1908 9.36001L29.878 14.3466H34.454L38.2445 5.75565L33.1221 5.59894C29.878 5.59895 24.4514 4.9909 20.5304 6.56742C16.15 8.32889 12.4867 11.5352 10.4719 15.2963H5.29672L3.53027 19.9318L18.7608 19.9725L20.5739 15.2931L20.5769 15.2994Z" fill="white"/>
<path d="M100.88 5.4231H156.53L142.671 41.4326H87.0205L100.88 5.4231Z" fill="url(#paint0_linear_4305_91)"/>
<path d="M112.963 40.5678C108.995 40.5678 106.571 38.6838 106.571 34.8507V24.1745H109.531V34.8074C109.531 36.973 110.711 38.0774 112.985 38.0774C115.151 38.0774 116.374 36.9297 116.374 34.7641V24.1745H119.355V34.8507C119.355 38.6622 116.888 40.5678 112.963 40.5678ZM128.294 40.6544C123.918 40.6544 121.452 38.4239 121.323 35.1323H124.304C124.518 37.2113 125.87 38.2507 128.315 38.2507C130.053 38.2507 131.49 37.4927 131.49 35.8903C131.49 34.1578 129.903 33.768 127.372 33.1832C124.39 32.512 121.902 31.7107 121.902 28.484C121.902 25.4306 124.39 23.8931 127.801 23.8931C131.512 23.8931 133.656 25.6905 133.957 28.6572H131.061C130.825 27.0764 129.645 26.1885 127.757 26.1885C125.977 26.1885 124.797 26.9464 124.797 28.2241C124.797 29.7184 126.342 30.1082 128.809 30.6279C131.769 31.2776 134.493 32.1655 134.493 35.652C134.493 38.857 131.833 40.6544 128.294 40.6544ZM135.434 40.2863L141.225 24.1745H144.401L150.213 40.2863H147.039L145.773 36.4533H139.724L138.437 40.2863H135.434ZM141.719 30.5197L140.453 34.2444H145.044L143.821 30.5197C143.199 28.6139 142.813 26.6433 142.813 26.6433H142.77C142.77 26.6433 142.234 28.9821 141.719 30.5197Z" fill="white"/>
<path d="M60.0535 22.1202L59.6459 19.9114H59.5601C58.5305 21.6654 56.8146 22.4883 54.8198 22.4883C52.5675 22.4883 50.7015 21.6221 49.393 20.1929C48.0202 18.6986 47.291 16.5981 47.291 14.1294C47.291 11.5308 48.1489 9.25699 49.7148 7.74115C51.0017 6.4635 52.7606 5.70557 55.0342 5.70557C58.938 5.70557 61.2117 7.80612 61.7909 10.8378H58.7879C58.3589 9.3436 57.2007 8.21755 55.0771 8.21755C51.8383 8.21755 50.3154 10.7945 50.3154 14.1294C50.3154 17.5726 52.2029 19.9763 55.0771 19.9763C57.7583 19.9763 59.174 18.1356 59.1955 16.0784V15.8835H55.3345V13.5447H62.0483V22.1202H60.0535ZM69.7316 22.4667C66.1709 22.4667 63.8758 19.7814 63.8758 16.3599C63.8758 12.9168 66.1709 10.2531 69.7316 10.2531C73.2922 10.2531 75.5443 12.9168 75.5443 16.3599C75.5443 19.7814 73.2922 22.4667 69.7316 22.4667ZM69.7101 20.3878C71.7049 20.3878 72.7774 18.677 72.7774 16.3599C72.7774 14.0212 71.7049 12.2887 69.7101 12.2887C67.6938 12.2887 66.6428 14.0212 66.6428 16.3599C66.6428 18.677 67.6938 20.3878 69.7101 20.3878ZM77.5058 22.1202V6.00874H80.2515V22.1202H77.5058ZM82.0544 12.462V10.5563H83.8133V9.27864C83.8133 8.10929 84.0922 7.30805 84.6931 6.76667C85.3577 6.18198 86.3876 5.94377 87.6956 5.96543C88.0609 5.96543 88.4898 5.98708 88.9187 6.03039V8.08764C87.1166 8.00103 86.5377 8.1959 86.5377 9.45193V10.5563H88.8967V12.462H86.5377V22.1202H83.8133V12.462H82.0544ZM54.9484 40.7874C50.3368 40.7874 47.2695 37.2576 47.2695 32.4285C47.2695 27.6426 50.2296 24.0262 54.9699 24.0262C56.7931 24.0262 58.2946 24.5027 59.3885 25.3472C60.6755 26.365 61.4476 27.8159 61.6407 29.505H58.6807C58.4018 27.7726 57.0505 26.5599 54.9484 26.5599C51.9026 26.5599 50.2939 29.0719 50.2939 32.4285C50.2939 35.85 52.1171 38.2537 54.9699 38.2537C57.3508 38.2537 58.6592 36.6512 58.8308 34.7023H61.8123C61.748 36.3048 60.9972 37.9289 59.8818 39.0116C58.7236 40.181 57.0934 40.7874 54.9484 40.7874ZM71.2062 40.4409C71.0132 40.181 70.863 39.7263 70.8201 38.9467H70.7772C70.0265 39.9645 68.9969 40.7224 67.1737 40.7224C64.943 40.7224 63.2698 39.553 63.2698 37.3009C63.2698 34.6806 65.2432 34.0526 67.9673 33.7278C69.8549 33.4896 70.7986 33.1864 70.7986 32.1469C70.7986 31.1508 70.1123 30.4795 68.7395 30.4795C67.2166 30.4795 66.4659 31.1942 66.4015 32.3419H63.8275C63.9134 30.3712 65.4577 28.5738 68.718 28.5738C70.0265 28.5738 71.0346 28.7688 71.7853 29.2452C72.8578 29.8948 73.4155 30.9992 73.4155 32.5367V38.6218C73.4155 39.5746 73.5871 40.0727 73.8445 40.246V40.4409H71.2062ZM67.9673 38.8384C69.8334 38.8384 70.863 37.5391 70.863 36.2398V34.529C70.3267 34.8755 69.4688 35.1137 68.6322 35.287C66.9592 35.6117 65.994 35.9582 65.994 37.2359C65.994 38.4702 66.9163 38.8384 67.9673 38.8384ZM78.5719 28.877V30.9559H78.6364C79.3654 29.4617 80.4597 28.7038 81.9185 28.7038C82.2398 28.7038 82.4543 28.7255 82.6475 28.8121V31.2808H82.5619C82.3042 31.2158 82.0897 31.1942 81.8109 31.1942C80.0095 31.1724 78.6576 32.4068 78.6576 34.6373V40.4409H75.9338V28.877H78.5719ZM83.8565 30.761V28.877H85.6154V25.1957H88.2966V28.877H90.592V30.761H88.2966V37.2359C88.2966 38.0804 88.7467 38.3187 89.5189 38.3187C89.7978 38.3187 90.1843 38.2754 90.3987 38.2321H90.5276V40.3759C90.0767 40.4625 89.4553 40.5491 88.7255 40.5491C86.881 40.5491 85.6154 39.8778 85.6154 37.8423V30.761H83.8565ZM97.1979 40.809C93.937 40.809 92.05 39.2282 91.878 36.8894H94.4947C94.7092 38.2754 95.7603 38.8601 97.2191 38.8601C98.7203 38.8601 99.4281 38.2104 99.4281 37.2792C99.4281 36.1315 98.2702 35.9149 96.4681 35.5684C94.3235 35.1353 92.2857 34.6373 92.2857 32.017C92.2857 29.8299 94.1302 28.5738 96.8114 28.5738C99.857 28.5738 101.38 29.9598 101.659 31.9737H99.0636C98.8704 30.9776 98.1414 30.4362 96.7902 30.4362C95.5246 30.4362 94.86 31.0209 94.86 31.8221C94.86 32.8399 96.0392 33.0348 97.7769 33.3596C99.9435 33.7711 102.088 34.2908 102.088 37.1059C102.088 39.5313 100.029 40.809 97.1979 40.809Z" fill="white"/>
<defs>
<linearGradient id="paint0_linear_4305_91" x1="102.084" y1="34.1578" x2="166.022" y2="19.313" gradientUnits="userSpaceOnUse">
<stop stop-color="white" stop-opacity="0"/>
<stop offset="1" stop-color="#394543" stop-opacity="0.5"/>
</linearGradient>
</defs>
</svg>
